<svg xmlns="http://www.w3.org/2000/svg" viewBox="0 0 64 64"><defs><linearGradient id="cream-lin" x1="0" y1="0" x2=".35" y2="1"><stop offset="0" stop-color="#FFFFFF"/><stop offset=".5" stop-color="#F7F2EA"/><stop offset="1" stop-color="#E3D9CB"/></linearGradient><path id="p0" d="M3.28 6.96C3.28 4.78 5.07 3 7.25 3L31.03 3L42.93 14.89L42.93 54.54C42.93 56.72 41.14 58.5 38.96 58.5L7.25 58.5C5.07 58.5 3.28 56.72 3.28 54.54Z"/><linearGradient id="gl" x1="0" y1="0" x2="0" y2="1"><stop offset="0" stop-color="#fff" stop-opacity=".6"/><stop offset=".4" stop-color="#fff" stop-opacity=".14"/><stop offset=".62" stop-color="#fff" stop-opacity="0"/></linearGradient><linearGradient id="paper-lin" x1="0" y1="0" x2=".35" y2="1"><stop offset="0" stop-color="#FBF7F0"/><stop offset=".5" stop-color="#EFE7DA"/><stop offset="1" stop-color="#D8CCBA"/></linearGradient><path id="p1" d="M31.03 3L31.03 11.92C31.03 13.6 32.32 14.89 34.01 14.89L42.93 14.89Z"/><linearGradient id="brass-lin" x1="0" y1="0" x2=".35" y2="1"><stop offset="0" stop-color="#FFE7A8"/><stop offset=".5" stop-color="#E6AE48"/><stop offset="1" stop-color="#B7791F"/></linearGradient><path id="p2" d="M43.06 45.44L35 48.59L38.15 40.53Z"/><linearGradient id="orange-lin" x1="0" y1="0" x2=".35" y2="1"><stop offset="0" stop-color="#FFC08A"/><stop offset=".5" stop-color="#F7761A"/><stop offset="1" stop-color="#D4510B"/></linearGradient><path id="p3" d="M58.82 29.67L45.51 42.98C44.16 44.34 41.96 44.34 40.61 42.98L40.61 42.98C39.25 41.63 39.25 39.43 40.61 38.07L53.92 24.76C55.28 23.41 57.47 23.41 58.82 24.76L58.82 24.76C60.18 26.12 60.18 28.31 58.82 29.67Z"/><linearGradient id="steel-lin" x1="0" y1="0" x2=".35" y2="1"><stop offset="0" stop-color="#FFFFFF"/><stop offset=".5" stop-color="#D8DFE8"/><stop offset="1" stop-color="#9CA9BA"/></linearGradient><path id="p4" d="M48.87 40.04L48.03 40.88C47.64 41.27 47.02 41.27 46.63 40.88L42.71 36.95C42.32 36.57 42.32 35.94 42.71 35.56L43.55 34.71C43.94 34.33 44.56 34.33 44.95 34.71L48.87 38.64C49.26 39.03 49.26 39.65 48.87 40.04Z"/></defs><use href="#p0" fill="#B3A392" transform="translate(0.88 2.5)"/><use href="#p0" fill="#B3A392" transform="translate(0.58 1.67)"/><use href="#p0" fill="#B3A392" transform="translate(0.29 0.83)"/><use href="#p0" fill="url(#cream-lin)" stroke="#B3A392" stroke-opacity=".4" stroke-width=".7"/><use href="#p0" fill="url(#gl)" opacity="0.9"/><use href="#p1" fill="#A89883" transform="translate(0.28 0.8)"/><use href="#p1" fill="url(#paper-lin)" stroke="#A89883" stroke-opacity=".4" stroke-width=".7"/><use href="#p1" fill="url(#gl)" opacity="0.9"/><path d="M10.22 14.89L24.1 14.89" fill="none" stroke="#1B3A5C" stroke-width="2.58" stroke-linecap="round" stroke-linejoin="round" opacity="0.85"/><path d="M10.22 22.82L35.99 22.82M10.22 29.76L35.99 29.76M10.22 36.7L29.05 36.7" fill="none" stroke="#A8B4C4" stroke-width="1.98" stroke-linecap="round" stroke-linejoin="round"/><path d="M9.23 50.57L29.05 50.57" fill="none" stroke="#C9BBA6" stroke-width="1.19" stroke-linecap="round" stroke-linejoin="round"/><path d="M9.23 47.6C12.2 41.65 14.19 41.65 14.19 45.62C14.19 49.58 17.16 42.64 19.14 43.63C21.12 44.63 20.13 48.59 23.1 46.61" fill="none" stroke="#1B3A5C" stroke-width="1.78" stroke-linecap="round" stroke-linejoin="round"/><use href="#p2" fill="#7C4A0E" transform="translate(0.7 2)"/><use href="#p2" fill="#7C4A0E" transform="translate(0.35 1)"/><use href="#p2" fill="url(#brass-lin)" stroke="#7C4A0E" stroke-opacity=".4" stroke-width=".7"/><use href="#p2" fill="url(#gl)" opacity="0.9"/><use href="#p3" fill="#9A3412" transform="translate(0.88 2.5)"/><use href="#p3" fill="#9A3412" transform="translate(0.58 1.67)"/><use href="#p3" fill="#9A3412" transform="translate(0.29 0.83)"/><use href="#p3" fill="url(#orange-lin)" stroke="#9A3412" stroke-opacity=".4" stroke-width=".7"/><use href="#p3" fill="url(#gl)" opacity="0.9"/><use href="#p4" fill="#5B6778" transform="translate(0.28 0.8)"/><use href="#p4" fill="url(#steel-lin)" stroke="#5B6778" stroke-opacity=".4" stroke-width=".7"/><use href="#p4" fill="url(#gl)" opacity="0.9"/></svg>
