<svg xmlns="http://www.w3.org/2000/svg" viewBox="0 0 64 64"><defs><radialGradient id="water-radial" cx=".36" cy=".3" r=".85" fx=".3" fy=".22"><stop offset="0" stop-color="#C9F0FF"/><stop offset=".48" stop-color="#38BDF8"/><stop offset="1" stop-color="#0284C7"/></radialGradient><path id="p0" d="M3.97 30.5C3.97 15.31 16.29 3 31.48 3C46.66 3 58.98 15.31 58.98 30.5C58.98 45.69 46.66 58 31.48 58C16.29 58 3.97 45.69 3.97 30.5Z"/><linearGradient id="gl" x1="0" y1="0" x2="0" y2="1"><stop offset="0" stop-color="#fff" stop-opacity=".6"/><stop offset=".4" stop-color="#fff" stop-opacity=".14"/><stop offset=".62" stop-color="#fff" stop-opacity="0"/></linearGradient><linearGradient id="g1" gradientUnits="userSpaceOnUse" x1="28.22" y1="24.19" x2="30.5" y2="47"><stop offset="0" stop-color="#FFFFFF"/><stop offset=".5" stop-color="#F7F2EA"/><stop offset="1" stop-color="#E3D9CB"/></linearGradient><path id="p2" d="M31.48 27.44L31.48 43.74" fill="none" stroke-linecap="round" stroke-linejoin="round"/><radialGradient id="cream-radial" cx=".36" cy=".3" r=".85" fx=".3" fy=".22"><stop offset="0" stop-color="#FFFFFF"/><stop offset=".48" stop-color="#F7F2EA"/><stop offset="1" stop-color="#E3D9CB"/></radialGradient><path id="p3" d="M27.5 17.77C27.5 15.57 29.28 13.8 31.48 13.8C33.67 13.8 35.45 15.57 35.45 17.77C35.45 19.96 33.67 21.74 31.48 21.74C29.28 21.74 27.5 19.96 27.5 17.77Z"/></defs><use href="#p0" fill="#075985" transform="translate(1.05 3)"/><use href="#p0" fill="#075985" transform="translate(0.7 2)"/><use href="#p0" fill="#075985" transform="translate(0.35 1)"/><use href="#p0" fill="url(#water-radial)" stroke="#075985" stroke-opacity=".4" stroke-width=".7"/><use href="#p0" fill="url(#gl)" opacity="0.9"/><use href="#p2" stroke="#B3A392" stroke-width="6.52" transform="translate(0.63 1.8)"/><use href="#p2" stroke="#B3A392" stroke-width="6.52" transform="translate(0.32 0.9)"/><use href="#p2" stroke="url(#g1)" stroke-width="6.52"/><use href="#p2" stroke="#fff" stroke-opacity=".5" stroke-width="1.96" transform="translate(-0.78 -1.3)"/><use href="#p3" fill="#B3A392" transform="translate(0.63 1.8)"/><use href="#p3" fill="#B3A392" transform="translate(0.32 0.9)"/><use href="#p3" fill="url(#cream-radial)"/><use href="#p3" fill="url(#gl)" opacity="0.9"/></svg>
