<svg xmlns="http://www.w3.org/2000/svg" viewBox="0 0 64 64"><defs><radialGradient id="gs"><stop offset="0" stop-color="#0D1B2A" stop-opacity=".3"/><stop offset="1" stop-color="#0D1B2A" stop-opacity="0"/></radialGradient><linearGradient id="g0" gradientUnits="userSpaceOnUse" x1="17.29" y1="3" x2="27.22" y2="32.31"><stop offset="0" stop-color="#FFFFFF"/><stop offset=".5" stop-color="#D8DFE8"/><stop offset="1" stop-color="#9CA9BA"/></linearGradient><path id="p1" d="M20.13 29.47L20.13 18.13C20.13 10.85 25.24 5.84 31.48 5.84C37.71 5.84 42.82 10.85 42.82 18.13L42.82 29.47" fill="none" stroke-linecap="butt" stroke-linejoin="round"/><linearGradient id="brass-lin" x1="0" y1="0" x2=".35" y2="1"><stop offset="0" stop-color="#FFE7A8"/><stop offset=".5" stop-color="#E6AE48"/><stop offset="1" stop-color="#B7791F"/></linearGradient><path id="p2" d="M18.24 25.69L44.71 25.69C48.89 25.69 52.28 29.08 52.28 33.25L52.28 47.44C52.28 51.61 48.89 55 44.71 55L18.24 55C14.06 55 10.68 51.61 10.68 47.44L10.68 33.25C10.68 29.08 14.06 25.69 18.24 25.69Z"/><linearGradient id="gl" x1="0" y1="0" x2="0" y2="1"><stop offset="0" stop-color="#fff" stop-opacity=".6"/><stop offset=".4" stop-color="#fff" stop-opacity=".14"/><stop offset=".62" stop-color="#fff" stop-opacity="0"/></linearGradient></defs><ellipse cx="32.68" cy="58.6" rx="19.14" ry="3.2" fill="url(#gs)"/><use href="#p1" stroke="#5B6778" stroke-width="5.67" transform="translate(0.7 2)"/><use href="#p1" stroke="#5B6778" stroke-width="5.67" transform="translate(0.35 1)"/><use href="#p1" stroke="url(#g0)" stroke-width="5.67"/><use href="#p1" stroke="#fff" stroke-opacity=".5" stroke-width="1.7" transform="translate(-0.68 -1.13)"/><use href="#p2" fill="#7C4A0E" transform="translate(1.05 3)"/><use href="#p2" fill="#7C4A0E" transform="translate(0.7 2)"/><use href="#p2" fill="#7C4A0E" transform="translate(0.35 1)"/><use href="#p2" fill="url(#brass-lin)" stroke="#7C4A0E" stroke-opacity=".4" stroke-width=".7"/><use href="#p2" fill="url(#gl)" opacity="0.9"/><path d="M31.48 33.54C33.84 33.54 35.73 35.43 35.73 37.79C35.73 39.31 34.97 40.63 33.74 41.39L34.78 48.19L28.17 48.19L29.21 41.39C27.98 40.63 27.22 39.31 27.22 37.79C27.22 35.43 29.11 33.54 31.48 33.54Z" fill="#FFE7A8" opacity="0.7"/><path d="M31.48 32.78C33.84 32.78 35.73 34.67 35.73 37.04C35.73 38.55 34.97 39.87 33.74 40.63L34.78 47.44L28.17 47.44L29.21 40.63C27.98 39.87 27.22 38.55 27.22 37.04C27.22 34.67 29.11 32.78 31.48 32.78Z" fill="#5B3A0A"/></svg>
