<svg xmlns="http://www.w3.org/2000/svg" viewBox="0 0 64 64"><defs><radialGradient id="gs"><stop offset="0" stop-color="#0D1B2A" stop-opacity=".3"/><stop offset="1" stop-color="#0D1B2A" stop-opacity="0"/></radialGradient><linearGradient id="paper-lin" x1="0" y1="0" x2=".35" y2="1"><stop offset="0" stop-color="#FBF7F0"/><stop offset=".5" stop-color="#EFE7DA"/><stop offset="1" stop-color="#D8CCBA"/></linearGradient><path id="p0" d="M18.23 3L44.72 3C45.53 3 46.19 3.66 46.19 4.47L46.19 23.11C46.19 23.93 45.53 24.58 44.72 24.58L18.23 24.58C17.42 24.58 16.76 23.93 16.76 23.11L16.76 4.47C16.76 3.66 17.42 3 18.23 3Z"/><linearGradient id="gl" x1="0" y1="0" x2="0" y2="1"><stop offset="0" stop-color="#fff" stop-opacity=".6"/><stop offset=".4" stop-color="#fff" stop-opacity=".14"/><stop offset=".62" stop-color="#fff" stop-opacity="0"/></linearGradient><linearGradient id="steel-lin" x1="0" y1="0" x2=".35" y2="1"><stop offset="0" stop-color="#FFFFFF"/><stop offset=".5" stop-color="#D8DFE8"/><stop offset="1" stop-color="#9CA9BA"/></linearGradient><path id="p1" d="M10.87 18.7L52.08 18.7C55.33 18.7 57.97 21.33 57.97 24.58L57.97 36.36C57.97 39.61 55.33 42.25 52.08 42.25L10.87 42.25C7.62 42.25 4.98 39.61 4.98 36.36L4.98 24.58C4.98 21.33 7.62 18.7 10.87 18.7Z"/><linearGradient id="cream-lin" x1="0" y1="0" x2=".35" y2="1"><stop offset="0" stop-color="#FFFFFF"/><stop offset=".5" stop-color="#F7F2EA"/><stop offset="1" stop-color="#E3D9CB"/></linearGradient><path id="p2" d="M15.78 35.38L47.17 35.38L47.17 53.04C47.17 54.02 46.19 55 45.21 55L17.74 55C16.76 55 15.78 54.02 15.78 53.04Z"/><radialGradient id="green-radial" cx=".36" cy=".3" r=".85" fx=".3" fy=".22"><stop offset="0" stop-color="#B4F5CB"/><stop offset=".48" stop-color="#34C46A"/><stop offset="1" stop-color="#15803D"/></radialGradient><path id="p3" d="M47.96 26.06C47.96 24.86 48.92 23.9 50.12 23.9C51.31 23.9 52.28 24.86 52.28 26.06C52.28 27.25 51.31 28.22 50.12 28.22C48.92 28.22 47.96 27.25 47.96 26.06Z"/></defs><ellipse cx="32.68" cy="58.6" rx="24.37" ry="3.2" fill="url(#gs)"/><use href="#p0" fill="#A89883" transform="translate(0.35 1)"/><use href="#p0" fill="url(#paper-lin)" stroke="#A89883" stroke-opacity=".4" stroke-width=".7"/><use href="#p0" fill="url(#gl)" opacity="0.9"/><use href="#p1" fill="#5B6778" transform="translate(1.05 3)"/><use href="#p1" fill="#5B6778" transform="translate(0.7 2)"/><use href="#p1" fill="#5B6778" transform="translate(0.35 1)"/><use href="#p1" fill="url(#steel-lin)" stroke="#5B6778" stroke-opacity=".4" stroke-width=".7"/><use href="#p1" fill="url(#gl)" opacity="0.9"/><path d="M14.55 33.42L48.4 33.42C49.35 33.42 50.12 34.18 50.12 35.13L50.12 35.13C50.12 36.08 49.35 36.85 48.4 36.85L14.55 36.85C13.6 36.85 12.83 36.08 12.83 35.13L12.83 35.13C12.83 34.18 13.6 33.42 14.55 33.42Z" fill="#334155"/><use href="#p2" fill="#B3A392" transform="translate(0.42 1.2)"/><use href="#p2" fill="#B3A392" transform="translate(0.21 0.6)"/><use href="#p2" fill="url(#cream-lin)" stroke="#B3A392" stroke-opacity=".4" stroke-width=".7"/><use href="#p2" fill="url(#gl)" opacity="0.9"/><path d="M20.68 42.25L42.27 42.25M20.68 47.15L36.38 47.15" fill="none" stroke="#94A3B8" stroke-width="1.57" stroke-linecap="round" stroke-linejoin="round"/><use href="#p3" fill="#14532D" transform="translate(0.18 0.5)"/><use href="#p3" fill="url(#green-radial)"/><use href="#p3" fill="url(#gl)" opacity="0.9"/></svg>
