<svg xmlns="http://www.w3.org/2000/svg" viewBox="0 0 64 64"><defs><linearGradient id="steel-lin" x1="0" y1="0" x2=".35" y2="1"><stop offset="0" stop-color="#FFFFFF"/><stop offset=".5" stop-color="#D8DFE8"/><stop offset="1" stop-color="#9CA9BA"/></linearGradient><path id="p0" d="M23.1 34.98L31.56 32.87L60.13 23.34L59.07 20.7L28.39 26.52Z"/><linearGradient id="gl" x1="0" y1="0" x2="0" y2="1"><stop offset="0" stop-color="#fff" stop-opacity=".6"/><stop offset=".4" stop-color="#fff" stop-opacity=".14"/><stop offset=".62" stop-color="#fff" stop-opacity="0"/></linearGradient><linearGradient id="orange-lin" x1="0" y1="0" x2=".35" y2="1"><stop offset="0" stop-color="#FFC08A"/><stop offset=".5" stop-color="#F7761A"/><stop offset="1" stop-color="#D4510B"/></linearGradient><path id="p1" d="M3 43.44C3 38.19 7.26 33.92 12.52 33.92C17.78 33.92 22.04 38.19 22.04 43.44C22.04 48.7 17.78 52.97 12.52 52.97C7.26 52.97 3 48.7 3 43.44ZM7.23 43.44C7.23 40.52 9.6 38.16 12.52 38.16C15.44 38.16 17.81 40.52 17.81 43.44C17.81 46.37 15.44 48.73 12.52 48.73C9.6 48.73 7.23 46.37 7.23 43.44Z" fill-rule="evenodd"/><linearGradient id="g2" gradientUnits="userSpaceOnUse" x1="16.75" y1="30.22" x2="21.38" y2="41.33"><stop offset="0" stop-color="#FFC08A"/><stop offset=".5" stop-color="#F7761A"/><stop offset="1" stop-color="#D4510B"/></linearGradient><path id="p3" d="M19.4 38.68L27.33 32.87" fill="none" stroke-linecap="round" stroke-linejoin="round"/><path id="p4" d="M23.1 26.52L31.56 28.63L60.13 38.16L59.07 40.8L28.39 34.98Z"/><path id="p5" d="M3 18.06C3 12.8 7.26 8.53 12.52 8.53C17.78 8.53 22.04 12.8 22.04 18.06C22.04 23.31 17.78 27.58 12.52 27.58C7.26 27.58 3 23.31 3 18.06ZM7.23 18.06C7.23 15.13 9.6 12.77 12.52 12.77C15.44 12.77 17.81 15.13 17.81 18.06C17.81 20.98 15.44 23.34 12.52 23.34C9.6 23.34 7.23 20.98 7.23 18.06Z" fill-rule="evenodd"/><linearGradient id="g6" gradientUnits="userSpaceOnUse" x1="16.75" y1="20.17" x2="21.38" y2="31.28"><stop offset="0" stop-color="#FFC08A"/><stop offset=".5" stop-color="#F7761A"/><stop offset="1" stop-color="#D4510B"/></linearGradient><path id="p7" d="M19.4 22.82L27.33 28.63" fill="none" stroke-linecap="round" stroke-linejoin="round"/><radialGradient id="brass-radial" cx=".36" cy=".3" r=".85" fx=".3" fy=".22"><stop offset="0" stop-color="#FFE7A8"/><stop offset=".48" stop-color="#E6AE48"/><stop offset="1" stop-color="#B7791F"/></radialGradient><path id="p8" d="M26.48 30.75C26.48 29.11 27.81 27.79 29.45 27.79C31.08 27.79 32.41 29.11 32.41 30.75C32.41 32.39 31.08 33.71 29.45 33.71C27.81 33.71 26.48 32.39 26.48 30.75Z"/></defs><use href="#p0" fill="#5B6778" transform="translate(0.88 2.5)"/><use href="#p0" fill="#5B6778" transform="translate(0.58 1.67)"/><use href="#p0" fill="#5B6778" transform="translate(0.29 0.83)"/><use href="#p0" fill="url(#steel-lin)" stroke="#5B6778" stroke-opacity=".4" stroke-width=".7"/><use href="#p0" fill="url(#gl)" opacity="0.9"/><use href="#p1" fill="#9A3412" transform="translate(0.88 2.5)"/><use href="#p1" fill="#9A3412" transform="translate(0.58 1.67)"/><use href="#p1" fill="#9A3412" transform="translate(0.29 0.83)"/><use href="#p1" fill="url(#orange-lin)" stroke="#9A3412" stroke-opacity=".4" stroke-width=".7"/><use href="#p1" fill="url(#gl)" opacity="0.9"/><use href="#p3" stroke="#9A3412" stroke-width="5.29" transform="translate(0.88 2.5)"/><use href="#p3" stroke="#9A3412" stroke-width="5.29" transform="translate(0.58 1.67)"/><use href="#p3" stroke="#9A3412" stroke-width="5.29" transform="translate(0.29 0.83)"/><use href="#p3" stroke="url(#g2)" stroke-width="5.29"/><use href="#p3" stroke="#fff" stroke-opacity=".5" stroke-width="1.59" transform="translate(-0.63 -1.06)"/><use href="#p4" fill="#5B6778" transform="translate(0.88 2.5)"/><use href="#p4" fill="#5B6778" transform="translate(0.58 1.67)"/><use href="#p4" fill="#5B6778" transform="translate(0.29 0.83)"/><use href="#p4" fill="url(#steel-lin)" stroke="#5B6778" stroke-opacity=".4" stroke-width=".7"/><use href="#p4" fill="url(#gl)" opacity="0.9"/><use href="#p5" fill="#9A3412" transform="translate(0.88 2.5)"/><use href="#p5" fill="#9A3412" transform="translate(0.58 1.67)"/><use href="#p5" fill="#9A3412" transform="translate(0.29 0.83)"/><use href="#p5" fill="url(#orange-lin)" stroke="#9A3412" stroke-opacity=".4" stroke-width=".7"/><use href="#p5" fill="url(#gl)" opacity="0.9"/><use href="#p7" stroke="#9A3412" stroke-width="5.29" transform="translate(0.88 2.5)"/><use href="#p7" stroke="#9A3412" stroke-width="5.29" transform="translate(0.58 1.67)"/><use href="#p7" stroke="#9A3412" stroke-width="5.29" transform="translate(0.29 0.83)"/><use href="#p7" stroke="url(#g6)" stroke-width="5.29"/><use href="#p7" stroke="#fff" stroke-opacity=".5" stroke-width="1.59" transform="translate(-0.63 -1.06)"/><use href="#p8" fill="#7C4A0E" transform="translate(0.35 1)"/><use href="#p8" fill="url(#brass-radial)" stroke="#7C4A0E" stroke-opacity=".4" stroke-width=".7"/><use href="#p8" fill="url(#gl)" opacity="0.9"/></svg>
