<svg xmlns="http://www.w3.org/2000/svg" viewBox="0 0 64 64"><defs><linearGradient id="g0" gradientUnits="userSpaceOnUse" x1="3" y1="5.18" x2="22.99" y2="55.12"><stop offset="0" stop-color="#FFC08A"/><stop offset=".5" stop-color="#F7761A"/><stop offset="1" stop-color="#D4510B"/></linearGradient><path id="p1" d="M48.99 51.19C58.23 41.96 58.66 27.13 49.98 17.37C41.29 7.62 26.51 6.32 16.27 14.42C6.02 22.52 3.87 37.2 11.36 47.9" fill="none" stroke-linecap="round" stroke-linejoin="round"/><linearGradient id="orange-lin" x1="0" y1="0" x2=".35" y2="1"><stop offset="0" stop-color="#FFC08A"/><stop offset=".5" stop-color="#F7761A"/><stop offset="1" stop-color="#D4510B"/></linearGradient><path id="p2" d="M16.67 55.48L4.09 52.17L17.86 42.53Z"/><linearGradient id="gl" x1="0" y1="0" x2="0" y2="1"><stop offset="0" stop-color="#fff" stop-opacity=".6"/><stop offset=".4" stop-color="#fff" stop-opacity=".14"/><stop offset=".62" stop-color="#fff" stop-opacity="0"/></linearGradient><radialGradient id="amber-radial" cx=".36" cy=".3" r=".85" fx=".3" fy=".22"><stop offset="0" stop-color="#FFEBA8"/><stop offset=".48" stop-color="#FBBF24"/><stop offset="1" stop-color="#E09A0C"/></radialGradient><path id="p3" d="M18.67 33.76C18.67 26.64 24.44 20.87 31.56 20.87C38.68 20.87 44.45 26.64 44.45 33.76C44.45 40.88 38.68 46.65 31.56 46.65C24.44 46.65 18.67 40.88 18.67 33.76Z"/><linearGradient id="g4" gradientUnits="userSpaceOnUse" x1="23.94" y1="27.93" x2="29.39" y2="40.26"><stop offset="0" stop-color="#FFFFFF"/><stop offset=".5" stop-color="#F7F2EA"/><stop offset="1" stop-color="#E3D9CB"/></linearGradient><path id="p5" d="M25.73 34.32L29.88 38.47L37.72 29.73" fill="none" stroke-linecap="round" stroke-linejoin="round"/></defs><use href="#p1" stroke="#9A3412" stroke-width="7.84" transform="translate(0.88 2.5)"/><use href="#p1" stroke="#9A3412" stroke-width="7.84" transform="translate(0.58 1.67)"/><use href="#p1" stroke="#9A3412" stroke-width="7.84" transform="translate(0.29 0.83)"/><use href="#p1" stroke="url(#g0)" stroke-width="7.84"/><use href="#p1" stroke="#fff" stroke-opacity=".5" stroke-width="2.35" transform="translate(-0.94 -1.57)"/><use href="#p2" fill="#9A3412" stroke="#9A3412" stroke-width="1.68" stroke-linejoin="round" transform="translate(0.88 2.5)"/><use href="#p2" fill="#9A3412" stroke="#9A3412" stroke-width="1.68" stroke-linejoin="round" transform="translate(0.58 1.67)"/><use href="#p2" fill="#9A3412" stroke="#9A3412" stroke-width="1.68" stroke-linejoin="round" transform="translate(0.29 0.83)"/><use href="#p2" fill="url(#orange-lin)" stroke="url(#orange-lin)" stroke-width="1.68" stroke-linejoin="round"/><use href="#p2" fill="url(#gl)" opacity="0.9"/><use href="#p3" fill="#A16207" transform="translate(0.7 2)"/><use href="#p3" fill="#A16207" transform="translate(0.35 1)"/><use href="#p3" fill="url(#amber-radial)" stroke="#A16207" stroke-opacity=".4" stroke-width=".7"/><use href="#p3" fill="url(#gl)" opacity="0.9"/><use href="#p5" stroke="#B3A392" stroke-width="3.59" transform="translate(0.35 1)"/><use href="#p5" stroke="url(#g4)" stroke-width="3.59"/><use href="#p5" stroke="#fff" stroke-opacity=".5" stroke-width="1.08" transform="translate(-0.43 -0.72)"/></svg>
