<svg xmlns="http://www.w3.org/2000/svg" viewBox="0 0 64 64"><defs><radialGradient id="gs"><stop offset="0" stop-color="#0D1B2A" stop-opacity=".3"/><stop offset="1" stop-color="#0D1B2A" stop-opacity="0"/></radialGradient><linearGradient id="steel-lin" x1="0" y1="0" x2=".35" y2="1"><stop offset="0" stop-color="#FFFFFF"/><stop offset=".5" stop-color="#D8DFE8"/><stop offset="1" stop-color="#9CA9BA"/></linearGradient><path id="p0" d="M15.01 37.42L39.52 16.86C41.32 15.34 44.01 15.58 45.53 17.38L45.53 17.38C47.04 19.19 46.81 21.88 45 23.39L20.49 43.96C18.69 45.47 16 45.24 14.48 43.43L14.48 43.43C12.97 41.63 13.2 38.94 15.01 37.42Z"/><linearGradient id="gl" x1="0" y1="0" x2="0" y2="1"><stop offset="0" stop-color="#fff" stop-opacity=".6"/><stop offset=".4" stop-color="#fff" stop-opacity=".14"/><stop offset=".62" stop-color="#fff" stop-opacity="0"/></linearGradient><path id="p1" d="M5.5 50.97C1.71 46.46 2.3 39.73 6.81 35.95C11.32 32.16 18.05 32.75 21.83 37.26C25.62 41.77 25.03 48.5 20.52 52.29C16.01 56.07 9.28 55.48 5.5 50.97ZM9.42 47.68C7.45 45.33 7.75 41.84 10.1 39.87C12.45 37.9 15.94 38.21 17.91 40.55C19.88 42.9 19.58 46.4 17.23 48.36C14.88 50.33 11.39 50.03 9.42 47.68Z" fill-rule="evenodd"/><path id="p2" d="M59.68 13.35C60.9 19.1 58.05 24.94 52.77 27.51C47.49 30.09 41.13 28.74 37.36 24.24C33.58 19.74 33.35 13.24 36.81 8.49C40.26 3.73 46.51 1.94 51.96 4.14L40.46 13.83C37.19 16.58 44.87 25.73 48.14 22.98Z"/><linearGradient id="orange-lin" x1="0" y1="0" x2=".35" y2="1"><stop offset="0" stop-color="#FFC08A"/><stop offset=".5" stop-color="#F7761A"/><stop offset="1" stop-color="#D4510B"/></linearGradient><path id="p3" d="M21.74 29.68L29.09 23.51C31.58 21.43 35.28 21.75 37.36 24.24L37.36 24.24C39.44 26.72 39.12 30.42 36.63 32.5L29.28 38.67C26.8 40.75 23.1 40.43 21.02 37.95L21.02 37.95C18.94 35.47 19.26 31.77 21.74 29.68Z"/></defs><ellipse cx="32.68" cy="58.38" rx="26.2" ry="3.2" fill="url(#gs)"/><use href="#p0" fill="#5B6778" transform="translate(1.05 3)"/><use href="#p0" fill="#5B6778" transform="translate(0.7 2)"/><use href="#p0" fill="#5B6778" transform="translate(0.35 1)"/><use href="#p0" fill="url(#steel-lin)" stroke="#5B6778" stroke-opacity=".4" stroke-width=".7"/><use href="#p0" fill="url(#gl)" opacity="0.9"/><use href="#p1" fill="#5B6778" transform="translate(1.05 3)"/><use href="#p1" fill="#5B6778" transform="translate(0.7 2)"/><use href="#p1" fill="#5B6778" transform="translate(0.35 1)"/><use href="#p1" fill="url(#steel-lin)" stroke="#5B6778" stroke-opacity=".4" stroke-width=".7"/><use href="#p1" fill="url(#gl)" opacity="0.9"/><use href="#p2" fill="#5B6778" transform="translate(1.05 3)"/><use href="#p2" fill="#5B6778" transform="translate(0.7 2)"/><use href="#p2" fill="#5B6778" transform="translate(0.35 1)"/><use href="#p2" fill="url(#steel-lin)" stroke="#5B6778" stroke-opacity=".4" stroke-width=".7"/><use href="#p2" fill="url(#gl)" opacity="0.9"/><use href="#p3" fill="#9A3412" transform="translate(1.05 3)"/><use href="#p3" fill="#9A3412" transform="translate(0.7 2)"/><use href="#p3" fill="#9A3412" transform="translate(0.35 1)"/><use href="#p3" fill="url(#orange-lin)" stroke="#9A3412" stroke-opacity=".4" stroke-width=".7"/><use href="#p3" fill="url(#gl)" opacity="0.9"/><path d="M22.7 31.66L27.5 37.38" fill="none" stroke="#9A3412" stroke-width="1.07" stroke-linecap="round" stroke-linejoin="round" opacity="0.45"/><path d="M26.79 28.23L31.59 33.95" fill="none" stroke="#9A3412" stroke-width="1.07" stroke-linecap="round" stroke-linejoin="round" opacity="0.45"/><path d="M30.87 24.8L35.67 30.52" fill="none" stroke="#9A3412" stroke-width="1.07" stroke-linecap="round" stroke-linejoin="round" opacity="0.45"/></svg>
